<?xml version="1.0" standalone="no"?>
<!DOCTYPE svg PUBLIC "-//W3C//DTD SVG 20010904//EN"
 "http://www.w3.org/TR/2001/REC-SVG-20010904/DTD/svg10.dtd">
<svg version="1.0" xmlns="http://www.w3.org/2000/svg"
 width="362.000000pt" height="80.000000pt" viewBox="0 0 362.000000 80.000000"
 preserveAspectRatio="xMidYMid meet">

<g transform="translate(0.000000,80.000000) scale(0.100000,-0.100000)"
fill="#000000" stroke="none">
<path d="M1550 320 c0 -15 7 -20 25 -20 18 0 25 5 25 20 0 15 -7 20 -25 20
-18 0 -25 -5 -25 -20z"/>
<path d="M2250 320 c0 -15 7 -20 25 -20 18 0 25 5 25 20 0 15 -7 20 -25 20
-18 0 -25 -5 -25 -20z"/>
<path d="M1145 309 c-30 -17 -45 -40 -45 -69 0 -34 24 -56 84 -76 55 -19 74
-45 50 -68 -27 -27 -94 -13 -94 19 0 8 -9 15 -20 15 -27 0 -28 -50 0 -67 59
-38 163 -19 176 32 10 42 -11 74 -64 96 -68 29 -77 34 -80 52 -4 22 39 41 72
33 17 -4 26 -13 26 -26 0 -15 7 -20 25 -20 35 0 35 43 0 66 -32 21 -104 28
-130 13z"/>
<path d="M2110 275 c0 -16 -6 -25 -15 -25 -8 0 -15 -9 -15 -19 0 -10 7 -21 15
-25 11 -4 15 -22 15 -70 0 -74 14 -96 61 -96 22 0 29 5 29 19 0 10 -9 21 -20
24 -17 4 -20 14 -20 62 0 48 3 58 20 62 11 3 20 14 20 24 0 12 -7 19 -20 19
-15 0 -20 7 -20 25 0 20 -5 25 -25 25 -20 0 -25 -5 -25 -25z"/>
<path d="M1372 240 c-51 -21 -64 -120 -23 -172 28 -33 105 -33 132 1 10 13 19
27 19 32 0 15 -43 10 -62 -8 -15 -13 -23 -15 -36 -6 -25 15 -24 102 1 117 15
9 22 7 37 -11 27 -33 50 -30 50 7 0 24 -6 33 -26 40 -31 12 -61 12 -92 0z"/>
<path d="M1520 235 c0 -9 7 -18 15 -21 11 -5 15 -22 15 -69 0 -47 -4 -64 -15
-69 -8 -3 -15 -12 -15 -21 0 -12 12 -15 55 -15 40 0 55 4 55 14 0 8 -7 16 -15
20 -12 4 -15 24 -15 91 l0 85 -40 0 c-29 0 -40 -4 -40 -15z"/>
<path d="M1692 240 c-24 -10 -52 -64 -52 -102 0 -41 36 -86 74 -93 42 -8 91 6
91 26 0 10 -10 13 -33 11 -39 -3 -72 13 -72 33 0 12 14 15 60 15 57 0 60 1 60
25 0 72 -60 112 -128 85z m68 -50 c10 -18 8 -20 -25 -20 -37 0 -43 8 -23 28
18 18 36 15 48 -8z"/>
<path d="M1840 230 c0 -11 7 -20 15 -20 12 0 15 -14 15 -64 0 -48 -4 -65 -15
-70 -8 -3 -15 -12 -15 -21 0 -11 12 -15 50 -15 37 0 50 4 50 14 0 8 -4 18 -10
21 -5 3 -10 33 -10 65 0 51 3 60 22 66 30 9 48 -19 48 -78 0 -34 -5 -50 -15
-54 -8 -4 -15 -12 -15 -20 0 -10 15 -14 55 -14 40 0 55 4 55 14 0 8 -7 16 -15
20 -11 4 -15 22 -15 71 0 52 -4 69 -20 85 -22 22 -51 26 -81 10 -13 -7 -19 -7
-19 0 0 5 -18 10 -40 10 -33 0 -40 -3 -40 -20z"/>
<path d="M2220 235 c0 -9 7 -18 15 -21 11 -5 15 -22 15 -69 0 -47 -4 -64 -15
-69 -8 -3 -15 -12 -15 -21 0 -12 12 -15 55 -15 40 0 55 4 55 14 0 8 -7 16 -15
20 -12 4 -15 24 -15 91 l0 85 -40 0 c-29 0 -40 -4 -40 -15z"/>
<path d="M2393 240 c-15 -6 -23 -18 -23 -35 0 -29 26 -34 45 -9 15 22 55 10
55 -17 0 -13 -7 -19 -24 -19 -64 0 -104 -38 -86 -84 11 -31 52 -43 88 -26 18
8 28 8 30 1 2 -6 17 -11 33 -11 22 0 29 5 29 20 0 11 -4 20 -10 20 -6 0 -10
30 -10 69 0 48 -4 72 -15 81 -19 16 -85 22 -112 10z m77 -129 c0 -22 -37 -38
-52 -23 -17 17 -1 42 27 42 18 0 25 -5 25 -19z"/>
</g>
</svg>
